<?xml version="1.0" encoding="utf-8" ?>
<svg xmlns="http://www.w3.org/2000/svg" xmlns:xlink="http://www.w3.org/1999/xlink" width="30" height="30">
	<defs>
		<clipPath id="clip_0">
			<rect x="-170" y="-3855" width="1380" height="3940" clip-rule="evenodd"/>
		</clipPath>
	</defs>
	<g clip-path="url(#clip_0)">
		<path fill="rgb(49,74,107)" stroke="none" d="M15 0L15 0Q15.3842 0 15.7658 0.0174863Q16.1475 0.0349725 16.5257 0.0699093Q16.904 0.104846 17.2782 0.157162Q17.6523 0.209478 18.0216 0.279067Q18.3908 0.348656 18.7544 0.435375Q19.118 0.522095 19.4753 0.625768Q19.8325 0.729441 20.1826 0.849856Q20.5327 0.970271 20.875 1.10718Q21.2173 1.24409 21.551 1.39722Q21.8848 1.55035 22.2093 1.71939Q22.5339 1.88842 22.8485 2.07301Q23.1632 2.25761 23.4674 2.45739Q23.7715 2.65716 24.0645 2.87172Q24.3576 3.08627 24.6389 3.31516Q24.9202 3.54405 25.1892 3.78681Q25.4581 4.02958 25.7143 4.28571Q25.9704 4.54185 26.2132 4.81085Q26.456 5.07984 26.6848 5.36113Q26.9137 5.64243 27.1283 5.93546Q27.3428 6.22849 27.5426 6.53265Q27.7424 6.83681 27.927 7.15148Q28.1116 7.46615 28.2806 7.7907Q28.4496 8.11524 28.6028 8.44899Q28.7559 8.78274 28.8928 9.12502Q29.0297 9.4673 29.1502 9.81741Q29.2706 10.1675 29.3742 10.5247Q29.4779 10.882 29.5646 11.2456Q29.6514 11.6092 29.7209 11.9784Q29.7905 12.3477 29.8428 12.7218Q29.8952 13.096 29.9301 13.4743Q29.965 13.8525 29.9825 14.2342Q30 14.6158 30 15L30 15Q30 15.3842 29.9825 15.7658Q29.965 16.1475 29.9301 16.5257Q29.8952 16.904 29.8428 17.2782Q29.7905 17.6523 29.7209 18.0216Q29.6514 18.3908 29.5646 18.7544Q29.4779 19.118 29.3742 19.4753Q29.2706 19.8325 29.1502 20.1826Q29.0297 20.5327 28.8928 20.875Q28.7559 21.2173 28.6028 21.551Q28.4496 21.8848 28.2806 22.2093Q28.1116 22.5339 27.927 22.8485Q27.7424 23.1632 27.5426 23.4674Q27.3428 23.7715 27.1283 24.0645Q26.9137 24.3576 26.6848 24.6389Q26.456 24.9202 26.2132 25.1892Q25.9704 25.4581 25.7143 25.7143Q25.4581 25.9704 25.1892 26.2132Q24.9202 26.456 24.6389 26.6848Q24.3576 26.9137 24.0645 27.1283Q23.7715 27.3428 23.4674 27.5426Q23.1632 27.7424 22.8485 27.927Q22.5339 28.1116 22.2093 28.2806Q21.8848 28.4496 21.551 28.6028Q21.2173 28.7559 20.875 28.8928Q20.5327 29.0297 20.1826 29.1501Q19.8325 29.2706 19.4753 29.3742Q19.118 29.4779 18.7544 29.5646Q18.3908 29.6513 18.0216 29.7209Q17.6523 29.7905 17.2782 29.8428Q16.904 29.8952 16.5257 29.9301Q16.1475 29.965 15.7658 29.9825Q15.3842 30 15 30L15 30Q14.6158 30 14.2342 29.9825Q13.8525 29.965 13.4743 29.9301Q13.096 29.8952 12.7218 29.8428Q12.3477 29.7905 11.9784 29.7209Q11.6092 29.6513 11.2456 29.5646Q10.882 29.4779 10.5247 29.3742Q10.1675 29.2706 9.81741 29.1501Q9.4673 29.0297 9.12502 28.8928Q8.78274 28.7559 8.44899 28.6028Q8.11524 28.4496 7.79069 28.2806Q7.46615 28.1116 7.15148 27.927Q6.83681 27.7424 6.53265 27.5426Q6.22849 27.3428 5.93546 27.1283Q5.64243 26.9137 5.36113 26.6848Q5.07984 26.456 4.81085 26.2132Q4.54185 25.9704 4.28571 25.7143Q4.02958 25.4581 3.78681 25.1892Q3.54405 24.9202 3.31516 24.6389Q3.08627 24.3576 2.87172 24.0645Q2.65716 23.7715 2.45739 23.4674Q2.25761 23.1632 2.07301 22.8485Q1.88842 22.5339 1.71939 22.2093Q1.55035 21.8848 1.39722 21.551Q1.24409 21.2173 1.10718 20.875Q0.970271 20.5327 0.849856 20.1826Q0.729441 19.8325 0.625768 19.4753Q0.522095 19.118 0.435375 18.7544Q0.348656 18.3908 0.279067 18.0216Q0.209478 17.6523 0.157162 17.2782Q0.104846 16.904 0.0699093 16.5257Q0.0349725 16.1475 0.0174863 15.7658Q0 15.3842 0 15L0 15Q0 14.6158 0.0174863 14.2342Q0.0349725 13.8525 0.0699093 13.4743Q0.104846 13.096 0.157162 12.7218Q0.209478 12.3477 0.279067 11.9784Q0.348656 11.6092 0.435375 11.2456Q0.522095 10.882 0.625768 10.5247Q0.729441 10.1675 0.849856 9.81741Q0.970271 9.4673 1.10718 9.12502Q1.24409 8.78274 1.39722 8.44899Q1.55035 8.11524 1.71939 7.79069Q1.88842 7.46615 2.07301 7.15148Q2.25761 6.83681 2.45739 6.53265Q2.65716 6.22849 2.87172 5.93546Q3.08627 5.64243 3.31516 5.36113Q3.54405 5.07984 3.78681 4.81085Q4.02958 4.54185 4.28571 4.28571Q4.54185 4.02958 4.81085 3.78681Q5.07984 3.54405 5.36113 3.31516Q5.64243 3.08627 5.93546 2.87172Q6.22849 2.65716 6.53265 2.45739Q6.83681 2.25761 7.15148 2.07301Q7.46615 1.88842 7.7907 1.71939Q8.11524 1.55035 8.44899 1.39722Q8.78274 1.24409 9.12502 1.10718Q9.4673 0.970271 9.81741 0.849856Q10.1675 0.729441 10.5247 0.625768Q10.882 0.522095 11.2456 0.435375Q11.6092 0.348656 11.9784 0.279067Q12.3477 0.209478 12.7218 0.157162Q13.096 0.104846 13.4743 0.0699093Q13.8525 0.0349725 14.2342 0.0174863Q14.6158 0 15 0Z"/>
	</g>
	<defs>
		<clipPath id="clip_1">
			<rect x="-170" y="-3855" width="1380" height="3940" clip-rule="evenodd"/>
		</clipPath>
	</defs>
	<g clip-path="url(#clip_1)">
		<path fill="rgb(255,255,255)" stroke="none" transform="translate(7 7)" d="M4.70163 0.0481333C5.5549 0.0092 5.82733 0 8.00003 0C10.1727 0 10.4451 0.0092 11.2984 0.0481333C12.1499 0.0869667 12.7314 0.222233 13.2403 0.42C13.7664 0.624433 14.2125 0.897967 14.6573 1.3427C15.102 1.7875 15.3756 2.23363 15.58 2.7597C15.7778 3.26857 15.913 3.8501 15.9519 4.7016C15.9908 5.5549 16 5.82733 16 8C16 10.1727 15.9908 10.4451 15.9519 11.2984C15.913 12.1499 15.7778 12.7314 15.58 13.2403C15.3756 13.7664 15.102 14.2125 14.6573 14.6573C14.2125 15.102 13.7664 15.3756 13.2403 15.58C12.7314 15.7778 12.1499 15.913 11.2984 15.9519C10.4451 15.9908 10.1727 16 8.00003 16C5.82733 16 5.5549 15.9908 4.70163 15.9519C3.8501 15.913 3.26857 15.7778 2.7597 15.58C2.23363 15.3756 1.7875 15.102 1.3427 14.6573C0.897967 14.2125 0.624433 13.7664 0.42 13.2403C0.222233 12.7314 0.0869667 12.1499 0.0481333 11.2984C0.0092 10.4451 0 10.1727 0 8C0 5.82733 0.0092 5.5549 0.0481333 4.7016C0.0869667 3.8501 0.222233 3.26857 0.42 2.7597C0.624433 2.23363 0.897967 1.7875 1.3427 1.3427C1.7875 0.897967 2.23363 0.624433 2.7597 0.42C3.26857 0.222233 3.8501 0.0869667 4.70163 0.0481333ZM11.2327 1.4881C10.3891 1.4496 10.1361 1.44143 8.00003 1.44143C5.8639 1.44143 5.61087 1.4496 4.7673 1.4881C3.98733 1.52367 3.56373 1.65397 3.28183 1.76353C2.9084 1.90867 2.64193 2.08203 2.36197 2.362C2.08203 2.6419 1.90867 2.9084 1.76353 3.28183C1.65397 3.56373 1.52367 3.98733 1.4881 4.7673C1.4496 5.61087 1.44143 5.8639 1.44143 8C1.44143 10.1361 1.4496 10.3891 1.4881 11.2327C1.52367 12.0127 1.65397 12.4363 1.76353 12.7182C1.90867 13.0916 2.08207 13.3581 2.36197 13.638C2.64193 13.918 2.9084 14.0913 3.28183 14.2365C3.56373 14.346 3.98733 14.4763 4.7673 14.5119C5.61077 14.5504 5.86373 14.5586 8.00003 14.5586C10.1363 14.5586 10.3892 14.5504 11.2327 14.5119C12.0127 14.4763 12.4363 14.346 12.7182 14.2365C13.0916 14.0913 13.3581 13.918 13.638 13.638C13.918 13.3581 14.0913 13.0916 14.2365 12.7182C14.346 12.4363 14.4763 12.0127 14.5119 11.2327C14.5504 10.3891 14.5586 10.1361 14.5586 8C14.5586 5.8639 14.5504 5.61087 14.5119 4.7673C14.4763 3.98733 14.346 3.56373 14.2365 3.28183C14.0913 2.9084 13.918 2.6419 13.638 2.362C13.3581 2.08203 13.0916 1.90867 12.7182 1.76353C12.4363 1.65397 12.0127 1.52367 11.2327 1.4881Z" fill-rule="evenodd"/>
	</g>
	<defs>
		<clipPath id="clip_2">
			<rect x="-170" y="-3855" width="1380" height="3940" clip-rule="evenodd"/>
		</clipPath>
	</defs>
	<g clip-path="url(#clip_2)">
		<path fill="rgb(255,255,255)" stroke="none" transform="translate(10.8919 10.8918)" d="M0 4.1081C0 1.83923 1.83923 0 4.10813 0C6.37697 0 8.2162 1.83923 8.2162 4.1081C8.2162 6.37697 6.37697 8.2162 4.10813 8.2162C1.83923 8.2162 0 6.37697 0 4.1081ZM1.44143 4.1081C1.44143 5.58087 2.63533 6.77477 4.10813 6.77477C5.58087 6.77477 6.77477 5.58087 6.77477 4.1081C6.77477 2.63533 5.58087 1.44143 4.10813 1.44143C2.63533 1.44143 1.44143 2.63533 1.44143 4.1081Z" fill-rule="evenodd"/>
	</g>
	<defs>
		<clipPath id="clip_3">
			<rect x="-170" y="-3855" width="1380" height="3940" clip-rule="evenodd"/>
		</clipPath>
	</defs>
	<g clip-path="url(#clip_3)">
		<path fill="rgb(255,255,255)" stroke="none" transform="translate(18.3104 9.76953)" d="M1.92 0.960033C1.92 1.49023 1.4902 1.92 0.959967 1.92C0.4298 1.92 0 1.49023 0 0.960033C0 0.429833 0.4298 0 0.959967 0C1.4902 0 1.92 0.429833 1.92 0.960033L1.92 0.960033Z"/>
	</g>
</svg>