<?xml version="1.0" encoding="utf-8" ?>
<svg xmlns="http://www.w3.org/2000/svg" xmlns:xlink="http://www.w3.org/1999/xlink" width="12" height="13">
	<defs>
		<clipPath id="clip_0">
			<rect x="-1212" y="-49" width="1380" height="3940" clip-rule="evenodd"/>
		</clipPath>
	</defs>
	<g clip-path="url(#clip_0)">
		<path fill="rgb(2,46,72)" stroke="none" transform="translate(0.661682 3.34192)" d="M0 1.61924L3.10254 1.61924L3.10254 0L7.2748 2.98984L3.10254 5.97968L3.10254 4.36044L0 4.36044L0 1.61924"/>
	</g>
	<defs>
		<clipPath id="clip_1">
			<rect x="-1212" y="-49" width="1380" height="3940" clip-rule="evenodd"/>
		</clipPath>
	</defs>
	<g clip-path="url(#clip_1)">
		<path fill="rgb(2,46,72)" stroke="none" transform="translate(2.36536 0.268555)" d="M7.45133 0L1.65259 0C0.741341 0 0 0.741382 0 1.65259L0 2.33791L1.37225 2.33791L1.37225 1.65259C1.37225 1.49802 1.49798 1.37229 1.65259 1.37229L7.45133 1.37229C7.6059 1.37229 7.73164 1.49802 7.73164 1.65259L7.73164 10.4737C7.73164 10.6283 7.6059 10.7541 7.45133 10.7541L1.65259 10.7541C1.49798 10.7541 1.37225 10.6283 1.37225 10.4737L1.37225 9.85872L0 9.85872L0 10.4737C0 11.385 0.741341 12.1263 1.65259 12.1263L7.45133 12.1263C8.36259 12.1263 9.10393 11.385 9.10393 10.4737L9.10393 1.65259C9.10393 0.741382 8.36259 0 7.45133 0"/>
	</g>
</svg>