<?xml version="1.0" encoding="utf-8" ?>
<svg xmlns="http://www.w3.org/2000/svg" xmlns:xlink="http://www.w3.org/1999/xlink" width="40" height="36">
	<path fill="rgb(2,46,72)" stroke="none" transform="translate(1.40051 1)" d="M13.1296 9.8178L16.6489 13.0484C17.0134 13.383 17.199 13.8403 17.199 14.3008C17.199 14.7112 17.0517 15.1237 16.7508 15.4497C16.1163 16.1411 15.0421 16.1872 14.3506 15.5527L10.9651 12.4464C9.82419 13.2858 8.4187 13.7867 6.89354 13.7867C3.08709 13.7867 0 10.6993 0 6.89342C0 3.08492 3.08709 0 6.89354 0C10.701 0 13.787 3.08492 13.787 6.89342C13.787 7.94015 13.5474 8.92819 13.1296 9.8178ZM1.88855 6.89343C1.88855 9.65692 4.12976 11.8973 6.89348 11.8973C9.65823 11.8973 11.8994 9.65692 11.8994 6.89343C11.8994 4.12868 9.65823 1.8869 6.89348 1.8869C4.12976 1.8869 1.88855 4.12868 1.88855 6.89343Z" fill-rule="evenodd"/>
	<path fill="rgb(255,255,0)" stroke="none" transform="translate(21.4005 1)" d="M13.1296 9.8178L16.6489 13.0484C17.0134 13.383 17.199 13.8403 17.199 14.3008C17.199 14.7112 17.0517 15.1237 16.7508 15.4497C16.1163 16.1411 15.0421 16.1872 14.3506 15.5527L10.9651 12.4464C9.82419 13.2858 8.4187 13.7867 6.89354 13.7867C3.08709 13.7867 0 10.6993 0 6.89342C0 3.08492 3.08709 0 6.89354 0C10.701 0 13.787 3.08492 13.787 6.89342C13.787 7.94015 13.5474 8.92819 13.1296 9.8178ZM1.88855 6.89343C1.88855 9.65692 4.12976 11.8973 6.89348 11.8973C9.65823 11.8973 11.8994 9.65692 11.8994 6.89343C11.8994 4.12868 9.65823 1.8869 6.89348 1.8869C4.12976 1.8869 1.88855 4.12868 1.88855 6.89343Z" fill-rule="evenodd"/>
	<path fill="rgb(2,46,72)" stroke="none" transform="translate(4.66174 23.8419)" d="M0 1.61924L3.10254 1.61924L3.10254 0L7.2748 2.98984L3.10254 5.97968L3.10254 4.36044L0 4.36044L0 1.61924"/>
	<path fill="rgb(2,46,72)" stroke="none" transform="translate(6.36536 20.7686)" d="M7.45133 0L1.65259 0C0.741341 0 0 0.741382 0 1.65259L0 2.33791L1.37225 2.33791L1.37225 1.65259C1.37225 1.49802 1.49798 1.37229 1.65259 1.37229L7.45133 1.37229C7.6059 1.37229 7.73164 1.49802 7.73164 1.65259L7.73164 10.4737C7.73164 10.6283 7.6059 10.7541 7.45133 10.7541L1.65259 10.7541C1.49798 10.7541 1.37225 10.6283 1.37225 10.4737L1.37225 9.85872L0 9.85872L0 10.4737C0 11.385 0.741341 12.1263 1.65259 12.1263L7.45133 12.1263C8.36259 12.1263 9.10393 11.385 9.10393 10.4737L9.10393 1.65259C9.10393 0.741382 8.36259 0 7.45133 0"/>
	<path fill="rgb(255,255,0)" stroke="none" transform="translate(24.5962 24.0102)" d="M0 1.61924L3.10254 1.61924L3.10254 0L7.2748 2.98984L3.10254 5.97968L3.10254 4.36044L0 4.36044L0 1.61924"/>
	<path fill="rgb(255,255,0)" stroke="none" transform="translate(26.2998 20.9368)" d="M7.45133 0L1.65259 0C0.741341 0 0 0.741382 0 1.65259L0 2.33791L1.37225 2.33791L1.37225 1.65259C1.37225 1.49802 1.49798 1.37229 1.65259 1.37229L7.45133 1.37229C7.6059 1.37229 7.73164 1.49802 7.73164 1.65259L7.73164 10.4737C7.73164 10.6283 7.6059 10.7541 7.45133 10.7541L1.65259 10.7541C1.49798 10.7541 1.37225 10.6283 1.37225 10.4737L1.37225 9.85872L0 9.85872L0 10.4737C0 11.385 0.741341 12.1263 1.65259 12.1263L7.45133 12.1263C8.36259 12.1263 9.10393 11.385 9.10393 10.4737L9.10393 1.65259C9.10393 0.741382 8.36259 0 7.45133 0"/>
</svg>
