<?xml version="1.0" encoding="utf-8" ?>
<svg xmlns="http://www.w3.org/2000/svg" xmlns:xlink="http://www.w3.org/1999/xlink" width="18" height="16">
	<defs>
		<clipPath id="clip_0">
			<rect x="-1088.7" y="-46.200073" width="1366.2001" height="3900.6001" clip-rule="evenodd"/>
		</clipPath>
	</defs>
	<g clip-path="url(#clip_0)">
		<path fill="rgb(2,46,72)" stroke="none" transform="matrix(0.99 0 0 0.99 0.299988 0.329956)" d="M13.1296 9.8178L16.6489 13.0484C17.0134 13.383 17.199 13.8403 17.199 14.3008C17.199 14.7112 17.0517 15.1237 16.7508 15.4497C16.1163 16.1411 15.0421 16.1872 14.3506 15.5527L10.9651 12.4464C9.82419 13.2858 8.4187 13.7867 6.89354 13.7867C3.08709 13.7867 0 10.6993 0 6.89342C0 3.08492 3.08709 0 6.89354 0C10.701 0 13.787 3.08492 13.787 6.89342C13.787 7.94015 13.5474 8.92819 13.1296 9.8178ZM1.88861 6.89342C1.88861 9.65691 4.12982 11.8973 6.89354 11.8973C9.65829 11.8973 11.8995 9.65691 11.8995 6.89342C11.8995 4.12868 9.65829 1.8869 6.89354 1.8869C4.12982 1.8869 1.88861 4.12868 1.88861 6.89342Z" fill-rule="evenodd"/>
	</g>
</svg>