<?xml version="1.0" encoding="utf-8" ?>
<svg xmlns="http://www.w3.org/2000/svg" xmlns:xlink="http://www.w3.org/1999/xlink" width="30" height="30">
	<defs>
		<clipPath id="clip_0">
			<rect x="-240" y="-3855" width="1380" height="3940" clip-rule="evenodd"/>
		</clipPath>
	</defs>
	<g clip-path="url(#clip_0)">
		<path fill="rgb(49,74,107)" stroke="none" d="M15 0L15 0Q15.3842 0 15.7658 0.0174863Q16.1475 0.0349725 16.5257 0.0699093Q16.904 0.104846 17.2782 0.157162Q17.6523 0.209478 18.0216 0.279067Q18.3908 0.348656 18.7544 0.435375Q19.118 0.522095 19.4753 0.625768Q19.8325 0.729441 20.1826 0.849856Q20.5327 0.970271 20.875 1.10718Q21.2173 1.24409 21.551 1.39722Q21.8848 1.55035 22.2093 1.71939Q22.5339 1.88842 22.8485 2.07301Q23.1632 2.25761 23.4674 2.45739Q23.7715 2.65716 24.0645 2.87172Q24.3576 3.08627 24.6389 3.31516Q24.9202 3.54405 25.1892 3.78681Q25.4581 4.02958 25.7143 4.28571Q25.9704 4.54185 26.2132 4.81085Q26.456 5.07984 26.6848 5.36113Q26.9137 5.64243 27.1283 5.93546Q27.3428 6.22849 27.5426 6.53265Q27.7424 6.83681 27.927 7.15148Q28.1116 7.46615 28.2806 7.7907Q28.4496 8.11524 28.6028 8.44899Q28.7559 8.78274 28.8928 9.12502Q29.0297 9.4673 29.1502 9.81741Q29.2706 10.1675 29.3742 10.5247Q29.4779 10.882 29.5646 11.2456Q29.6514 11.6092 29.7209 11.9784Q29.7905 12.3477 29.8428 12.7218Q29.8952 13.096 29.9301 13.4743Q29.965 13.8525 29.9825 14.2342Q30 14.6158 30 15L30 15Q30 15.3842 29.9825 15.7658Q29.965 16.1475 29.9301 16.5257Q29.8952 16.904 29.8428 17.2782Q29.7905 17.6523 29.7209 18.0216Q29.6514 18.3908 29.5646 18.7544Q29.4779 19.118 29.3742 19.4753Q29.2706 19.8325 29.1502 20.1826Q29.0297 20.5327 28.8928 20.875Q28.7559 21.2173 28.6028 21.551Q28.4496 21.8848 28.2806 22.2093Q28.1116 22.5339 27.927 22.8485Q27.7424 23.1632 27.5426 23.4674Q27.3428 23.7715 27.1283 24.0645Q26.9137 24.3576 26.6848 24.6389Q26.456 24.9202 26.2132 25.1892Q25.9704 25.4581 25.7143 25.7143Q25.4581 25.9704 25.1892 26.2132Q24.9202 26.456 24.6389 26.6848Q24.3576 26.9137 24.0645 27.1283Q23.7715 27.3428 23.4674 27.5426Q23.1632 27.7424 22.8485 27.927Q22.5339 28.1116 22.2093 28.2806Q21.8848 28.4496 21.551 28.6028Q21.2173 28.7559 20.875 28.8928Q20.5327 29.0297 20.1826 29.1501Q19.8325 29.2706 19.4753 29.3742Q19.118 29.4779 18.7544 29.5646Q18.3908 29.6513 18.0216 29.7209Q17.6523 29.7905 17.2782 29.8428Q16.904 29.8952 16.5257 29.9301Q16.1475 29.965 15.7658 29.9825Q15.3842 30 15 30L15 30Q14.6158 30 14.2342 29.9825Q13.8525 29.965 13.4743 29.9301Q13.096 29.8952 12.7218 29.8428Q12.3477 29.7905 11.9784 29.7209Q11.6092 29.6513 11.2456 29.5646Q10.882 29.4779 10.5247 29.3742Q10.1675 29.2706 9.81741 29.1501Q9.4673 29.0297 9.12502 28.8928Q8.78274 28.7559 8.44899 28.6028Q8.11524 28.4496 7.79069 28.2806Q7.46615 28.1116 7.15148 27.927Q6.83681 27.7424 6.53265 27.5426Q6.22849 27.3428 5.93546 27.1283Q5.64243 26.9137 5.36113 26.6848Q5.07984 26.456 4.81085 26.2132Q4.54185 25.9704 4.28571 25.7143Q4.02958 25.4581 3.78681 25.1892Q3.54405 24.9202 3.31516 24.6389Q3.08627 24.3576 2.87172 24.0645Q2.65716 23.7715 2.45739 23.4674Q2.25761 23.1632 2.07301 22.8485Q1.88842 22.5339 1.71939 22.2093Q1.55035 21.8848 1.39722 21.551Q1.24409 21.2173 1.10718 20.875Q0.970271 20.5327 0.849856 20.1826Q0.729441 19.8325 0.625768 19.4753Q0.522095 19.118 0.435375 18.7544Q0.348656 18.3908 0.279067 18.0216Q0.209478 17.6523 0.157162 17.2782Q0.104846 16.904 0.0699093 16.5257Q0.0349725 16.1475 0.0174863 15.7658Q0 15.3842 0 15L0 15Q0 14.6158 0.0174863 14.2342Q0.0349725 13.8525 0.0699093 13.4743Q0.104846 13.096 0.157162 12.7218Q0.209478 12.3477 0.279067 11.9784Q0.348656 11.6092 0.435375 11.2456Q0.522095 10.882 0.625768 10.5247Q0.729441 10.1675 0.849856 9.81741Q0.970271 9.4673 1.10718 9.12502Q1.24409 8.78274 1.39722 8.44899Q1.55035 8.11524 1.71939 7.79069Q1.88842 7.46615 2.07301 7.15148Q2.25761 6.83681 2.45739 6.53265Q2.65716 6.22849 2.87172 5.93546Q3.08627 5.64243 3.31516 5.36113Q3.54405 5.07984 3.78681 4.81085Q4.02958 4.54185 4.28571 4.28571Q4.54185 4.02958 4.81085 3.78681Q5.07984 3.54405 5.36113 3.31516Q5.64243 3.08627 5.93546 2.87172Q6.22849 2.65716 6.53265 2.45739Q6.83681 2.25761 7.15148 2.07301Q7.46615 1.88842 7.7907 1.71939Q8.11524 1.55035 8.44899 1.39722Q8.78274 1.24409 9.12502 1.10718Q9.4673 0.970271 9.81741 0.849856Q10.1675 0.729441 10.5247 0.625768Q10.882 0.522095 11.2456 0.435375Q11.6092 0.348656 11.9784 0.279067Q12.3477 0.209478 12.7218 0.157162Q13.096 0.104846 13.4743 0.0699093Q13.8525 0.0349725 14.2342 0.0174863Q14.6158 0 15 0Z"/>
	</g>
	<defs>
		<clipPath id="clip_1">
			<rect x="-240" y="-3855" width="1380" height="3940" clip-rule="evenodd"/>
		</clipPath>
	</defs>
	<g clip-path="url(#clip_1)">
		<path fill="rgb(255,255,255)" stroke="none" transform="translate(8.1736 9.375)" d="M12.927 2.914C12.932 3.041 12.936 3.168 12.936 3.297C12.936 7.201 9.963 11.703 4.529 11.703C2.861 11.703 1.307 11.213 0 10.375C0.233 10.402 0.468 10.416 0.706 10.416C2.09 10.416 3.364 9.943 4.375 9.15C3.082 9.127 1.992 8.273 1.614 7.1C1.795 7.135 1.981 7.152 2.171 7.152C2.44 7.152 2.701 7.117 2.949 7.049C1.598 6.777 0.578 5.584 0.578 4.152L0.578 4.115C0.977 4.336 1.434 4.469 1.918 4.484C1.125 3.955 0.604 3.051 0.604 2.025C0.604 1.484 0.749 0.977 1.003 0.541C2.459 2.328 4.637 3.504 7.092 3.627C7.042 3.41 7.017 3.185 7.017 2.953C7.017 1.322 8.339 0 9.971 0C10.82 0 11.588 0.357 12.126 0.932C12.8 0.801 13.432 0.555 14.003 0.215C13.782 0.906 13.315 1.484 12.703 1.85C13.301 1.779 13.871 1.621 14.402 1.385C14.004 1.977 13.504 2.498 12.927 2.914"/>
	</g>
</svg>